<?xml version="1.0" encoding="UTF-8" standalone="no"?><!-- Generator: Gravit.io --><svg xmlns="http://www.w3.org/2000/svg" xmlns:xlink="http://www.w3.org/1999/xlink" style="isolation:isolate" viewBox="11.5 11.5 127 127" width="127pt" height="127pt"><g><circle vector-effect="non-scaling-stroke" cx="75" cy="75" r="62.5" fill="none" stroke-width="2" stroke="rgb(102,102,102)" stroke-linejoin="miter" stroke-linecap="square" stroke-miterlimit="3"/><g><path d=" M 99.86 92.798 C 100.257 92.487 100.654 92.232 100.994 92.005 C 109.016 86.902 107.797 97.702 115.224 95.208 C 113.126 94.301 113.013 94.868 111.227 93.252 C 110.263 92.402 109.498 91.268 108.676 90.02 C 104.282 83.331 102.241 81.545 93.964 85.995 C 86.82 89.85 72.449 91.183 64.342 91.211 C 60.657 91.239 56.887 91.069 53.23 90.786 C 49.97 90.531 45.548 89.794 42.742 89.794 C 53.769 93.847 76.361 93.082 89.06 89.227 C 93.737 87.838 97.762 85.712 103.205 87.158 C 101.249 89.51 93.425 91.92 89.372 92.912 C 76.729 96.002 57.794 95.86 45.123 92.628 C 44.698 92.543 38.858 90.417 41.466 92.345 C 47.561 96.852 77.92 100.197 96.402 94.357 C 96.77 94.216 97.167 94.102 97.564 93.961 C 98.726 93.564 98.896 93.507 99.86 92.798 L 99.86 92.798 Z " fill-rule="evenodd" fill="rgb(102,102,102)"/><path d=" M 64.947 59.497 C 64.408 58.533 64.911 58.206 65.988 58.121 C 68.426 57.922 74.747 58.149 77.044 58.404 C 77.497 60.955 73.614 60.558 72.395 61.409 C 73.699 62.032 75.286 61.664 76.392 62.571 C 75.881 64.187 73.103 64.669 70.921 64.669 C 68.284 64.697 66.612 64.243 64.94 63.11 C 64.996 61.267 65.45 61.721 66.584 60.955 C 67.83 60.394 66.934 61.799 64.947 59.497 L 64.947 59.497 Z  M 68.029 66.228 C 70.836 66.511 76.59 66.114 78.376 64.045 C 80.105 62.004 77.242 61.579 76.051 61.04 C 77.384 60.473 79.17 59.765 78.914 58.064 C 78.631 56.051 75.995 56.59 74.266 56.845 C 70.354 57.355 67.009 56.93 63.324 56.051 C 67.132 63.932 58.035 65.179 68.029 66.228 Z " fill-rule="evenodd" fill="rgb(102,102,102)"/><path d=" M 31.715 82.395 L 31.715 84.408 C 32.537 85.769 33.047 86.704 34.72 87.441 C 36.222 88.093 38.121 88.32 39.935 88.235 C 38.972 87.384 37.696 87.498 36.506 86.364 C 35.202 85.117 35.712 83.472 36.761 82.537 C 42.543 77.406 57.085 77.151 64.569 77.718 L 64.625 64.254 L 64.427 55.58 C 64.257 49.712 65.022 43.957 69.019 41.832 C 71.088 40.726 74.065 40.386 76.587 41.236 C 83.844 43.702 82.002 55.466 81.832 63.318 L 81.69 81.573 C 79.224 83.132 74.008 83.898 70.578 84.039 C 65.419 84.238 62.811 83.359 58.474 82.31 C 59.976 85.485 74.802 88.093 82.143 84.011 C 85.998 81.885 83.419 81.29 84.524 76.499 C 90.732 75.592 100.172 77.52 104.31 80.468 C 107.457 82.735 114.742 94.811 118.115 91.891 L 118.285 91.778 C 114.487 90.417 112.956 88.858 111.198 85.117 C 107.882 78.087 103.913 75.422 95.863 73.806 C 93.652 73.353 85.573 72.616 84.411 71.964 C 83.929 62.921 86.679 46.565 81.378 39.564 C 78.203 35.397 76.191 36.219 73.866 35 L 70.011 35 C 68.367 35.737 64.682 35.85 61.535 38.912 C 59.296 41.095 58.559 43.759 58.247 47.983 C 57.652 56.033 58.134 64.282 58.049 72.417 C 51.104 74.175 39.567 75.422 33.643 79.901 C 32.735 80.581 32.452 81.375 31.715 82.395 L 31.715 82.395 Z " fill-rule="evenodd" fill="rgb(255,7,58)"/><path d=" M 85.233 78.455 C 86.339 79.731 92.291 78.654 97.082 79.561 C 98.046 79.759 99.832 80.439 100.427 80.496 C 96.798 79.419 100.795 78.852 89.117 77.661 C 87.501 77.52 85.942 76.839 85.233 78.455 L 85.233 78.455 Z " fill-rule="evenodd" fill="rgb(255,7,58)"/><path d=" M 69.476 59.557 C 67.293 60.124 67.775 63.129 70.496 62.533 C 72.679 62.08 72.254 58.877 69.476 59.557 Z " fill-rule="evenodd" fill="rgb(102,102,102)"/></g><path d=" M 66.173 133.957 L 63.284 133.668 L 63.309 133.418 L 63.309 133.418 Q 63.954 133.482 64.085 133.254 L 64.085 133.254 L 64.684 127.248 L 64.684 127.248 Q 64.6 126.998 63.956 126.934 L 63.956 126.934 L 63.981 126.683 L 66.727 126.957 L 66.727 126.957 Q 68.315 127.115 69.186 128.173 L 69.186 128.173 L 69.186 128.173 Q 70.058 129.231 69.903 130.783 L 69.903 130.783 L 69.903 130.783 Q 69.748 132.335 68.707 133.221 L 68.707 133.221 L 68.707 133.221 Q 67.666 134.106 66.173 133.957 L 66.173 133.957 L 66.173 133.957 Z  M 66.692 127.303 L 65.797 127.214 L 65.175 133.447 L 66.214 133.551 L 66.214 133.551 Q 66.596 133.589 66.978 133.452 L 66.978 133.452 L 66.978 133.452 Q 67.359 133.315 67.728 133.002 L 67.728 133.002 L 67.728 133.002 Q 68.097 132.689 68.362 132.089 L 68.362 132.089 L 68.362 132.089 Q 68.627 131.488 68.708 130.676 L 68.708 130.676 L 68.708 130.676 Q 68.862 129.124 68.243 128.26 L 68.243 128.26 L 68.243 128.26 Q 67.624 127.396 66.692 127.303 L 66.692 127.303 L 66.692 127.303 Z  M 76.189 134.538 L 73.574 134.579 L 73.57 134.327 L 73.57 134.327 Q 74.217 134.317 74.322 134.075 L 74.322 134.075 L 74.228 128.04 L 74.228 128.04 Q 74.116 127.802 73.468 127.812 L 73.468 127.812 L 73.464 127.56 L 76.08 127.519 L 76.084 127.771 L 76.084 127.771 Q 75.436 127.781 75.331 128.023 L 75.331 128.023 L 75.373 130.698 L 78.445 130.651 L 78.403 127.975 L 78.403 127.975 Q 78.291 127.737 77.643 127.747 L 77.643 127.747 L 77.64 127.495 L 80.255 127.454 L 80.259 127.706 L 80.259 127.706 Q 79.611 127.716 79.507 127.958 L 79.507 127.958 L 79.601 133.993 L 79.601 133.993 Q 79.713 134.231 80.361 134.221 L 80.361 134.221 L 80.365 134.473 L 77.749 134.514 L 77.745 134.262 L 77.745 134.262 Q 78.393 134.252 78.497 134.01 L 78.497 134.01 L 78.451 131.059 L 75.38 131.106 L 75.426 134.058 L 75.426 134.058 Q 75.537 134.296 76.185 134.286 L 76.185 134.286 L 76.189 134.538 L 76.189 134.538 Z  M 90.365 132.576 L 87.789 133.098 L 87.739 132.851 L 87.739 132.851 Q 88.28 132.741 88.393 132.571 L 88.393 132.571 L 87.37 130.905 L 85.112 131.362 L 84.85 133.215 L 84.85 133.215 Q 85.01 133.403 85.622 133.279 L 85.622 133.279 L 85.672 133.526 L 83.743 133.916 L 83.693 133.669 L 83.693 133.669 Q 84.352 133.536 84.384 133.272 L 84.384 133.272 L 85.374 126.424 L 85.938 126.31 L 89.512 132.235 L 89.512 132.235 Q 89.645 132.465 90.315 132.329 L 90.315 132.329 L 90.365 132.576 L 90.365 132.576 Z  M 87.15 130.545 L 85.596 128.007 L 85.174 130.945 L 87.15 130.545 L 87.15 130.545 Z  M 96.068 130.664 L 93.641 131.641 L 93.547 131.407 L 93.547 131.407 Q 94.148 131.165 94.158 130.902 L 94.158 130.902 L 91.904 125.303 L 91.904 125.303 Q 91.714 125.121 91.113 125.363 L 91.113 125.363 L 91.019 125.129 L 93.535 124.116 L 93.535 124.116 Q 94.915 123.56 95.829 123.774 L 95.829 123.774 L 95.829 123.774 Q 96.743 123.988 97.003 124.634 L 97.003 124.634 L 97.003 124.634 Q 97.25 125.246 97.068 125.856 L 97.068 125.856 L 97.068 125.856 Q 96.887 126.466 96.249 126.969 L 96.249 126.969 L 98.796 129.022 L 98.796 129.022 Q 99.001 129.211 99.625 128.96 L 99.625 128.96 L 99.719 129.193 L 99.24 129.386 L 99.24 129.386 Q 98.461 129.7 98.191 129.705 L 98.191 129.705 L 98.191 129.705 Q 97.922 129.71 97.526 129.403 L 97.526 129.403 L 95.22 127.564 L 94.174 127.985 L 95.183 130.49 L 95.183 130.49 Q 95.372 130.672 95.973 130.43 L 95.973 130.43 L 96.068 130.664 L 96.068 130.664 Z  M 93.687 124.494 L 92.897 124.813 L 94.022 127.607 L 94.946 127.234 L 94.946 127.234 Q 95.836 126.876 96.031 126.396 L 96.031 126.396 L 96.031 126.396 Q 96.226 125.917 95.894 125.093 L 95.894 125.093 L 95.894 125.093 Q 95.648 124.481 95.14 124.297 L 95.14 124.297 L 95.14 124.297 Q 94.633 124.113 93.687 124.494 L 93.687 124.494 L 93.687 124.494 Z  M 104.983 126.511 L 104.983 126.511 L 104.983 126.511 Q 104.466 126.791 103.842 126.925 L 103.842 126.925 L 103.842 126.925 Q 103.218 127.059 103.197 127.07 L 103.197 127.07 L 103.197 127.07 Q 103.134 127.105 103.084 127.214 L 103.084 127.214 L 103.084 127.214 Q 103.034 127.323 103.08 127.407 L 103.08 127.407 L 102.837 127.539 L 102.041 126.073 L 102.273 125.947 L 102.273 125.947 Q 102.733 126.517 103.402 126.529 L 103.402 126.529 L 103.402 126.529 Q 104.071 126.541 104.725 126.186 L 104.725 126.186 L 104.725 126.186 Q 105.284 125.883 105.505 125.435 L 105.505 125.435 L 105.505 125.435 Q 105.726 124.987 105.451 124.481 L 105.451 124.481 L 105.451 124.481 Q 105.325 124.249 105.122 124.114 L 105.122 124.114 L 105.122 124.114 Q 104.919 123.978 104.624 123.927 L 104.624 123.927 L 104.624 123.927 Q 104.33 123.875 104.08 123.867 L 104.08 123.867 L 104.08 123.867 Q 103.83 123.859 103.441 123.859 L 103.441 123.859 L 103.441 123.859 Q 103.051 123.859 102.842 123.85 L 102.842 123.85 L 102.842 123.85 Q 102.346 123.818 102.101 123.794 L 102.101 123.794 L 102.101 123.794 Q 101.856 123.77 101.445 123.679 L 101.445 123.679 L 101.445 123.679 Q 101.034 123.589 100.764 123.394 L 100.764 123.394 L 100.764 123.394 Q 100.494 123.199 100.328 122.893 L 100.328 122.893 L 100.328 122.893 Q 99.991 122.271 100.285 121.455 L 100.285 121.455 L 100.285 121.455 Q 100.58 120.64 101.287 120.256 L 101.287 120.256 L 101.287 120.256 Q 101.592 120.09 102.132 120.002 L 102.132 120.002 L 102.132 120.002 Q 102.671 119.914 102.734 119.88 L 102.734 119.88 L 102.734 119.88 Q 102.861 119.811 102.746 119.6 L 102.746 119.6 L 102.989 119.469 L 103.822 120.751 L 103.59 120.877 L 103.59 120.877 Q 103.274 120.447 102.705 120.353 L 102.705 120.353 L 102.705 120.353 Q 102.135 120.26 101.492 120.609 L 101.492 120.609 L 101.492 120.609 Q 101.007 120.873 100.886 121.341 L 100.886 121.341 L 100.886 121.341 Q 100.764 121.81 100.936 122.126 L 100.936 122.126 L 100.936 122.126 Q 101.045 122.326 101.234 122.449 L 101.234 122.449 L 101.234 122.449 Q 101.424 122.571 101.704 122.61 L 101.704 122.61 L 101.704 122.61 Q 101.985 122.649 102.224 122.662 L 102.224 122.662 L 102.224 122.662 Q 102.464 122.676 102.85 122.671 L 102.85 122.671 L 102.85 122.671 Q 103.236 122.666 103.446 122.675 L 103.446 122.675 L 103.446 122.675 Q 104.022 122.704 104.28 122.727 L 104.28 122.727 L 104.28 122.727 Q 104.539 122.751 104.983 122.851 L 104.983 122.851 L 104.983 122.851 Q 105.426 122.952 105.699 123.165 L 105.699 123.165 L 105.699 123.165 Q 105.972 123.379 106.155 123.716 L 106.155 123.716 L 106.155 123.716 Q 106.579 124.497 106.187 125.283 L 106.187 125.283 L 106.187 125.283 Q 105.795 126.07 104.983 126.511 Z  M 112.212 121.376 L 110.194 123.039 L 110.033 122.845 L 110.033 122.845 Q 110.533 122.433 110.464 122.179 L 110.464 122.179 L 106.626 117.521 L 106.626 117.521 Q 106.39 117.404 105.89 117.816 L 105.89 117.816 L 105.729 117.622 L 107.748 115.958 L 107.909 116.152 L 107.909 116.152 Q 107.408 116.565 107.478 116.818 L 107.478 116.818 L 109.179 118.884 L 111.55 116.93 L 109.849 114.865 L 109.849 114.865 Q 109.613 114.748 109.112 115.16 L 109.112 115.16 L 108.952 114.966 L 110.971 113.302 L 111.131 113.497 L 111.131 113.497 Q 110.631 113.909 110.701 114.163 L 110.701 114.163 L 114.539 118.821 L 114.539 118.821 Q 114.775 118.938 115.275 118.526 L 115.275 118.526 L 115.435 118.72 L 113.416 120.384 L 113.256 120.189 L 113.256 120.189 Q 113.756 119.777 113.687 119.523 L 113.687 119.523 L 111.81 117.245 L 109.439 119.199 L 111.316 121.477 L 111.316 121.477 Q 111.552 121.593 112.052 121.181 L 112.052 121.181 L 112.212 121.376 L 112.212 121.376 Z  M 122.252 111.192 L 120.581 113.22 L 120.386 113.06 L 120.386 113.06 Q 120.737 112.634 120.718 112.431 L 120.718 112.431 L 118.873 111.782 L 117.408 113.561 L 118.373 115.164 L 118.373 115.164 Q 118.616 115.209 119.013 114.727 L 119.013 114.727 L 119.207 114.887 L 117.956 116.406 L 117.761 116.246 L 117.761 116.246 Q 118.188 115.727 118.047 115.502 L 118.047 115.502 L 114.499 109.562 L 114.865 109.117 L 121.374 111.464 L 121.374 111.464 Q 121.622 111.56 122.057 111.032 L 122.057 111.032 L 122.252 111.192 L 122.252 111.192 Z  M 118.476 111.642 L 115.669 110.651 L 117.194 113.198 L 118.476 111.642 L 118.476 111.642 Z  M 125.299 106.84 L 124.226 108.432 L 124.017 108.292 L 124.017 108.292 Q 124.379 107.754 124.24 107.531 L 124.24 107.531 L 119.235 104.157 L 119.235 104.157 Q 118.976 104.112 118.614 104.649 L 118.614 104.649 L 118.405 104.509 L 119.303 103.175 L 125.593 102.625 L 121.932 100.157 L 121.932 100.157 Q 121.672 100.112 121.31 100.649 L 121.31 100.649 L 121.101 100.509 L 122.174 98.916 L 122.383 99.057 L 122.383 99.057 Q 122.021 99.595 122.16 99.818 L 122.16 99.818 L 127.573 103.467 L 127.512 103.557 L 119.931 104.134 L 124.468 107.192 L 124.468 107.192 Q 124.728 107.237 125.09 106.7 L 125.09 106.7 L 125.299 106.84 L 125.299 106.84 Z  M 28.083 100.126 L 28.083 100.126 L 28.083 100.126 Q 27.591 99.218 26.387 99.025 L 26.387 99.025 L 26.387 99.025 Q 25.183 98.832 23.98 99.484 L 23.98 99.484 L 23.98 99.484 Q 23.253 99.879 22.797 100.372 L 22.797 100.372 L 22.797 100.372 Q 22.34 100.865 22.201 101.35 L 22.201 101.35 L 22.201 101.35 Q 22.061 101.836 22.103 102.264 L 22.103 102.264 L 22.103 102.264 Q 22.144 102.692 22.338 103.051 L 22.338 103.051 L 22.338 103.051 Q 22.659 103.641 23.145 104.06 L 23.145 104.06 L 25.308 102.887 L 25.308 102.887 Q 25.467 102.678 25.158 102.108 L 25.158 102.108 L 25.38 101.988 L 26.627 104.287 L 26.405 104.407 L 26.405 104.407 Q 26.096 103.838 25.834 103.857 L 25.834 103.857 L 24.062 104.819 L 24.062 104.819 Q 23.627 104.823 23.027 104.445 L 23.027 104.445 L 23.027 104.445 Q 22.426 104.068 21.968 103.224 L 21.968 103.224 L 21.968 103.224 Q 21.202 101.811 21.65 100.448 L 21.65 100.448 L 21.65 100.448 Q 22.098 99.085 23.364 98.399 L 23.364 98.399 L 23.364 98.399 Q 24.83 97.603 26.275 98.103 L 26.275 98.103 L 26.275 98.103 Q 27.72 98.602 28.436 99.921 L 28.436 99.921 L 28.436 99.921 Q 28.602 100.226 28.689 100.766 L 28.689 100.766 L 28.689 100.766 Q 28.777 101.305 28.812 101.368 L 28.812 101.368 L 28.812 101.368 Q 28.88 101.495 29.091 101.381 L 29.091 101.381 L 29.223 101.623 L 27.94 102.455 L 27.814 102.223 L 27.814 102.223 Q 28.244 101.908 28.338 101.339 L 28.338 101.339 L 28.338 101.339 Q 28.432 100.769 28.083 100.126 Z  M 29.453 113.84 L 27.782 111.812 L 27.976 111.651 L 27.976 111.651 Q 28.327 112.077 28.53 112.097 L 28.53 112.097 L 29.52 110.411 L 28.055 108.633 L 26.297 109.273 L 26.297 109.273 Q 26.206 109.503 26.603 109.984 L 26.603 109.984 L 26.408 110.145 L 25.157 108.626 L 25.352 108.465 L 25.352 108.465 Q 25.779 108.984 26.027 108.889 L 26.027 108.889 L 32.536 106.542 L 32.902 106.986 L 29.354 112.927 L 29.354 112.927 Q 29.213 113.152 29.648 113.68 L 29.648 113.68 L 29.453 113.84 L 29.453 113.84 Z  M 29.734 110.048 L 31.243 107.483 L 28.452 108.492 L 29.734 110.048 L 29.734 110.048 Z  M 33.093 117.708 L 31.714 116.373 L 31.889 116.191 L 31.889 116.191 Q 32.355 116.642 32.599 116.545 L 32.599 116.545 L 36.798 112.209 L 36.798 112.209 Q 36.887 111.961 36.422 111.51 L 36.422 111.51 L 36.597 111.329 L 37.752 112.448 L 37.192 118.737 L 40.263 115.565 L 40.263 115.565 Q 40.353 115.317 39.887 114.866 L 39.887 114.866 L 40.063 114.685 L 41.442 116.021 L 41.267 116.202 L 41.267 116.202 Q 40.801 115.751 40.557 115.848 L 40.557 115.848 L 36.015 120.538 L 35.938 120.463 L 36.699 112.898 L 32.892 116.829 L 32.892 116.829 Q 32.803 117.076 33.268 117.527 L 33.268 117.527 L 33.093 117.708 L 33.093 117.708 Z  M 46.657 119.793 L 46.657 119.793 L 46.657 119.793 Q 45.801 119.217 44.644 119.602 L 44.644 119.602 L 44.644 119.602 Q 43.487 119.987 42.723 121.121 L 42.723 121.121 L 42.723 121.121 Q 42.26 121.808 42.084 122.456 L 42.084 122.456 L 42.084 122.456 Q 41.907 123.104 42.008 123.599 L 42.008 123.599 L 42.008 123.599 Q 42.108 124.093 42.343 124.454 L 42.343 124.454 L 42.343 124.454 Q 42.577 124.815 42.916 125.043 L 42.916 125.043 L 42.916 125.043 Q 43.473 125.418 44.098 125.565 L 44.098 125.565 L 45.473 123.525 L 45.473 123.525 Q 45.517 123.266 44.98 122.903 L 44.98 122.903 L 45.121 122.694 L 47.29 124.157 L 47.149 124.366 L 47.149 124.366 Q 46.612 124.003 46.388 124.142 L 46.388 124.142 L 45.261 125.814 L 45.261 125.814 Q 44.878 126.018 44.171 125.961 L 44.171 125.961 L 44.171 125.961 Q 43.464 125.904 42.668 125.368 L 42.668 125.368 L 42.668 125.368 Q 41.334 124.469 41.102 123.053 L 41.102 123.053 L 41.102 123.053 Q 40.87 121.638 41.674 120.444 L 41.674 120.444 L 41.674 120.444 Q 42.607 119.06 44.119 118.835 L 44.119 118.835 L 44.119 118.835 Q 45.631 118.61 46.875 119.448 L 46.875 119.448 L 46.875 119.448 Q 47.164 119.643 47.491 120.081 L 47.491 120.081 L 47.491 120.081 Q 47.818 120.518 47.878 120.559 L 47.878 120.559 L 47.878 120.559 Q 47.997 120.639 48.131 120.44 L 48.131 120.44 L 48.36 120.594 L 47.608 121.925 L 47.389 121.777 L 47.389 121.777 Q 47.624 121.299 47.444 120.751 L 47.444 120.751 L 47.444 120.751 Q 47.264 120.203 46.657 119.793 Z  M 54.327 131.127 L 51.924 130.063 L 52.026 129.833 L 52.026 129.833 Q 52.531 130.056 52.721 129.983 L 52.721 129.983 L 52.85 128.032 L 50.743 127.099 L 49.458 128.459 L 49.458 128.459 Q 49.48 128.706 50.051 128.958 L 50.051 128.958 L 49.949 129.189 L 48.149 128.392 L 48.251 128.161 L 48.251 128.161 Q 48.866 128.434 49.045 128.237 L 49.045 128.237 L 53.811 123.221 L 54.338 123.454 L 53.829 130.355 L 53.829 130.355 Q 53.804 130.619 54.429 130.896 L 54.429 130.896 L 54.327 131.127 L 54.327 131.127 Z  M 52.878 127.611 L 53.077 124.642 L 51.035 126.795 L 52.878 127.611 L 52.878 127.611 Z " fill="rgb(0,0,0)"/></g></svg>